<mxfile host="app.diagrams.net" modified="2020-12-05T06:19:16.891Z" agent="5.0 (Windows NT 6.1; Win64; x64) AppleWebKit/537.36 (KHTML, like Gecko) Chrome/87.0.4280.88 Safari/537.36" etag="W6GrNagG4QaduRdlCr2p" version="13.10.8" type="github">
  <diagram id="qv_eZby50ewoY0AkvYKy" name="第 1 页">
    <mxGraphModel dx="1102" dy="582" grid="1" gridSize="10" guides="1" tooltips="1" connect="1" arrows="1" fold="1" page="1" pageScale="1" pageWidth="827" pageHeight="1169" math="0" shadow="0">
      <root>
        <mxCell id="0" />
        <mxCell id="1" parent="0" />
        <mxCell id="3udEV1b7q0z2Lfti4pwi-1" value="" style="rounded=1;whiteSpace=wrap;html=1;fontSize=18;fillColor=#f9f7ed;strokeColor=none;" vertex="1" parent="1">
          <mxGeometry x="55" y="525" width="643.75" height="105" as="geometry" />
        </mxCell>
        <mxCell id="3udEV1b7q0z2Lfti4pwi-2" value="" style="rounded=1;whiteSpace=wrap;html=1;fontSize=18;fillColor=#f9f7ed;strokeColor=none;" vertex="1" parent="1">
          <mxGeometry x="117.5" y="170" width="515" height="215" as="geometry" />
        </mxCell>
        <mxCell id="3udEV1b7q0z2Lfti4pwi-3" value="0" style="rounded=0;whiteSpace=wrap;html=1;fontSize=16;fillColor=#f8cecc;strokeColor=none;" vertex="1" parent="1">
          <mxGeometry x="130" y="280" width="90" height="60" as="geometry" />
        </mxCell>
        <mxCell id="3udEV1b7q0z2Lfti4pwi-4" value="01111100" style="rounded=0;whiteSpace=wrap;html=1;fontSize=16;fillColor=#cce5ff;strokeColor=none;" vertex="1" parent="1">
          <mxGeometry x="220" y="280" width="150" height="60" as="geometry" />
        </mxCell>
        <mxCell id="3udEV1b7q0z2Lfti4pwi-5" value="符号位" style="text;html=1;align=center;verticalAlign=middle;resizable=0;points=[];autosize=1;fontSize=16;" vertex="1" parent="1">
          <mxGeometry x="145" y="230" width="60" height="20" as="geometry" />
        </mxCell>
        <mxCell id="3udEV1b7q0z2Lfti4pwi-6" value="" style="shape=curlyBracket;whiteSpace=wrap;html=1;rounded=1;fontSize=16;rotation=90;" vertex="1" parent="1">
          <mxGeometry x="162.5" y="222.5" width="20" height="85" as="geometry" />
        </mxCell>
        <mxCell id="3udEV1b7q0z2Lfti4pwi-7" value="10011001100110011001101" style="rounded=0;whiteSpace=wrap;html=1;fontSize=16;fillColor=#cdeb8b;strokeColor=none;" vertex="1" parent="1">
          <mxGeometry x="370" y="280" width="250" height="60" as="geometry" />
        </mxCell>
        <mxCell id="3udEV1b7q0z2Lfti4pwi-8" value="指数位" style="text;html=1;align=center;verticalAlign=middle;resizable=0;points=[];autosize=1;fontSize=16;" vertex="1" parent="1">
          <mxGeometry x="265" y="230" width="60" height="20" as="geometry" />
        </mxCell>
        <mxCell id="3udEV1b7q0z2Lfti4pwi-9" value="" style="shape=curlyBracket;whiteSpace=wrap;html=1;rounded=1;fontSize=16;rotation=90;" vertex="1" parent="1">
          <mxGeometry x="283.75" y="188.75" width="20" height="152.5" as="geometry" />
        </mxCell>
        <mxCell id="3udEV1b7q0z2Lfti4pwi-10" value="尾数位" style="text;html=1;align=center;verticalAlign=middle;resizable=0;points=[];autosize=1;fontSize=16;" vertex="1" parent="1">
          <mxGeometry x="462.5" y="230" width="60" height="20" as="geometry" />
        </mxCell>
        <mxCell id="3udEV1b7q0z2Lfti4pwi-11" value="" style="shape=curlyBracket;whiteSpace=wrap;html=1;rounded=1;fontSize=16;rotation=90;" vertex="1" parent="1">
          <mxGeometry x="482.5" y="145" width="20" height="240" as="geometry" />
        </mxCell>
        <mxCell id="3udEV1b7q0z2Lfti4pwi-12" value="0.2 二进制浮点数" style="text;html=1;align=center;verticalAlign=middle;resizable=0;points=[];autosize=1;fontSize=18;fillColor=#ffff88;" vertex="1" parent="1">
          <mxGeometry x="290" y="180" width="150" height="30" as="geometry" />
        </mxCell>
        <mxCell id="3udEV1b7q0z2Lfti4pwi-13" value="&lt;font size=&quot;4&quot;&gt;(-1)&lt;/font&gt;&lt;sup&gt;&lt;font style=&quot;font-size: 12px&quot;&gt;0&lt;/font&gt;&lt;/sup&gt;" style="rounded=0;whiteSpace=wrap;html=1;fontSize=16;fillColor=#f8cecc;strokeColor=none;" vertex="1" parent="1">
          <mxGeometry x="72.5" y="450" width="90" height="60" as="geometry" />
        </mxCell>
        <mxCell id="3udEV1b7q0z2Lfti4pwi-14" value="&lt;font size=&quot;4&quot;&gt;2&lt;/font&gt;&lt;sup&gt;&lt;font style=&quot;font-size: 12px&quot;&gt;（&lt;font color=&quot;#0000ff&quot;&gt;124&lt;/font&gt;&amp;nbsp;-&amp;nbsp;&lt;font color=&quot;#ff0000&quot;&gt;&lt;b&gt;127&lt;/b&gt;&lt;/font&gt;）&lt;/font&gt;&lt;/sup&gt;" style="rounded=0;whiteSpace=wrap;html=1;fontSize=16;fillColor=#cce5ff;strokeColor=none;" vertex="1" parent="1">
          <mxGeometry x="235" y="450" width="150" height="60" as="geometry" />
        </mxCell>
        <mxCell id="3udEV1b7q0z2Lfti4pwi-15" value="&lt;span style=&quot;font-size: 18px&quot;&gt;&amp;nbsp;&lt;/span&gt;&lt;font color=&quot;#ff0000&quot; style=&quot;font-size: 18px&quot;&gt;1&lt;/font&gt;&lt;span style=&quot;font-size: 18px&quot;&gt;&amp;nbsp;+ &lt;font color=&quot;#0000ff&quot;&gt;0.&lt;/font&gt;&lt;/span&gt;&lt;span style=&quot;font-size: 18px&quot;&gt;&lt;font color=&quot;#0000ff&quot;&gt;0.600000023841858&lt;/font&gt;&lt;/span&gt;&lt;span style=&quot;font-size: 18px&quot;&gt;&lt;br style=&quot;font-size: 18px&quot;&gt;&lt;/span&gt;" style="rounded=0;whiteSpace=wrap;html=1;fontSize=18;fillColor=#cdeb8b;strokeColor=none;" vertex="1" parent="1">
          <mxGeometry x="440" y="450" width="250" height="60" as="geometry" />
        </mxCell>
        <mxCell id="3udEV1b7q0z2Lfti4pwi-16" value="表示正数" style="text;html=1;align=center;verticalAlign=middle;resizable=0;points=[];autosize=1;fontSize=16;" vertex="1" parent="1">
          <mxGeometry x="130" y="350" width="80" height="20" as="geometry" />
        </mxCell>
        <mxCell id="3udEV1b7q0z2Lfti4pwi-17" value="转换成十进制是 &lt;br style=&quot;font-size: 16px&quot;&gt;&lt;font color=&quot;#0000ff&quot;&gt;124&lt;/font&gt;" style="text;html=1;align=center;verticalAlign=middle;resizable=0;points=[];autosize=1;fontSize=16;" vertex="1" parent="1">
          <mxGeometry x="228.75" y="345" width="130" height="40" as="geometry" />
        </mxCell>
        <mxCell id="3udEV1b7q0z2Lfti4pwi-18" value="小数部分转换成十进制是&lt;br style=&quot;font-size: 16px&quot;&gt;&lt;font color=&quot;#0000ff&quot;&gt;0.600000023841858&lt;/font&gt;" style="text;html=1;align=center;verticalAlign=middle;resizable=0;points=[];autosize=1;fontSize=16;" vertex="1" parent="1">
          <mxGeometry x="400" y="345" width="190" height="40" as="geometry" />
        </mxCell>
        <mxCell id="3udEV1b7q0z2Lfti4pwi-19" value="X" style="text;html=1;align=center;verticalAlign=middle;resizable=0;points=[];autosize=1;fontSize=18;" vertex="1" parent="1">
          <mxGeometry x="182.5" y="465" width="30" height="30" as="geometry" />
        </mxCell>
        <mxCell id="3udEV1b7q0z2Lfti4pwi-20" value="X" style="text;html=1;align=center;verticalAlign=middle;resizable=0;points=[];autosize=1;fontSize=18;" vertex="1" parent="1">
          <mxGeometry x="398.5" y="465" width="30" height="30" as="geometry" />
        </mxCell>
        <mxCell id="3udEV1b7q0z2Lfti4pwi-21" value="" style="shape=flexArrow;endArrow=classic;html=1;fontSize=18;fillColor=#ffcc99;strokeColor=none;" edge="1" parent="1">
          <mxGeometry width="50" height="50" relative="1" as="geometry">
            <mxPoint x="160" y="385" as="sourcePoint" />
            <mxPoint x="120" y="440" as="targetPoint" />
          </mxGeometry>
        </mxCell>
        <mxCell id="3udEV1b7q0z2Lfti4pwi-22" value="" style="shape=flexArrow;endArrow=classic;html=1;fontSize=18;entryX=0.393;entryY=-0.05;entryDx=0;entryDy=0;entryPerimeter=0;fillColor=#ffcc99;strokeColor=none;" edge="1" parent="1" target="3udEV1b7q0z2Lfti4pwi-14">
          <mxGeometry width="50" height="50" relative="1" as="geometry">
            <mxPoint x="294" y="385" as="sourcePoint" />
            <mxPoint x="250" y="440" as="targetPoint" />
          </mxGeometry>
        </mxCell>
        <mxCell id="3udEV1b7q0z2Lfti4pwi-23" value="" style="shape=flexArrow;endArrow=classic;html=1;fontSize=18;fillColor=#ffcc99;strokeColor=none;" edge="1" parent="1">
          <mxGeometry width="50" height="50" relative="1" as="geometry">
            <mxPoint x="510.04999999999995" y="388" as="sourcePoint" />
            <mxPoint x="540" y="440" as="targetPoint" />
          </mxGeometry>
        </mxCell>
        <mxCell id="3udEV1b7q0z2Lfti4pwi-24" value="" style="endArrow=none;dashed=1;html=1;dashPattern=1 3;strokeWidth=2;fontSize=18;" edge="1" parent="1">
          <mxGeometry width="50" height="50" relative="1" as="geometry">
            <mxPoint x="60" y="520" as="sourcePoint" />
            <mxPoint x="710" y="520" as="targetPoint" />
          </mxGeometry>
        </mxCell>
        <mxCell id="3udEV1b7q0z2Lfti4pwi-25" value="0.20000000298023223876953125" style="rounded=1;whiteSpace=wrap;html=1;fontSize=18;gradientColor=#ffa500;fillColor=#ffcd28;strokeColor=none;" vertex="1" parent="1">
          <mxGeometry x="240" y="545" width="395" height="60" as="geometry" />
        </mxCell>
        <mxCell id="3udEV1b7q0z2Lfti4pwi-26" value="0.2 二进制浮点数&lt;br&gt;转十进制后的值" style="text;html=1;align=center;verticalAlign=middle;resizable=0;points=[];autosize=1;fontSize=18;" vertex="1" parent="1">
          <mxGeometry x="70" y="555" width="150" height="50" as="geometry" />
        </mxCell>
      </root>
    </mxGraphModel>
  </diagram>
</mxfile>
